<svg width="17" height="16" viewBox="0 0 17 16" fill="none" xmlns="http://www.w3.org/2000/svg">
<mask id="mask0_13708_235334" style="mask-type:alpha" maskUnits="userSpaceOnUse" x="0" y="0" width="17" height="16">
<rect x="0.5" width="16" height="16" fill="#D9D9D9"/>
</mask>
<g mask="url(#mask0_13708_235334)">
<path d="M7.64999 7.98338L10.3917 10.725C10.5417 10.875 10.6139 11.0514 10.6083 11.2542C10.6028 11.457 10.525 11.6362 10.375 11.7917C10.225 11.9473 10.0444 12.025 9.83333 12.025C9.62221 12.025 9.44166 11.9473 9.29166 11.7917L6.03333 8.53338C5.95555 8.46116 5.89444 8.37644 5.84999 8.27922C5.80555 8.18199 5.78333 8.08338 5.78333 7.98338C5.78333 7.88338 5.80555 7.78477 5.84999 7.68755C5.89444 7.59033 5.95555 7.50283 6.03333 7.42505L9.30833 4.15005C9.45833 4.00005 9.63888 3.92505 9.84999 3.92505C10.0611 3.92505 10.2417 4.00283 10.3917 4.15838C10.5417 4.31394 10.6167 4.49588 10.6167 4.70422C10.6167 4.91255 10.5417 5.09172 10.3917 5.24172L7.64999 7.98338Z" fill="#D9DDFF"/>
</g>
</svg>
