<svg width="24" height="24" viewBox="0 0 24 24" fill="none" xmlns="http://www.w3.org/2000/svg">
<mask id="mask0_13708_235368" style="mask-type:alpha" maskUnits="userSpaceOnUse" x="0" y="0" width="24" height="24">
<rect width="24" height="24" fill="#D9D9D9"/>
</mask>
<g mask="url(#mask0_13708_235368)">
<path d="M10.1325 18.1733C9.53717 18.1733 9.03 17.9638 8.611 17.5448C8.192 17.1258 7.9825 16.6186 7.9825 16.0233V14.688C7.06234 14.0225 6.343 13.1922 5.8245 12.197C5.306 11.2018 5.04675 10.134 5.04675 8.9935C5.04675 7.06084 5.72159 5.41984 7.07125 4.0705C8.42092 2.72134 10.0646 2.04675 12.0023 2.04675C13.9399 2.04675 15.5828 2.72142 16.931 4.07075C18.2792 5.41992 18.9533 7.063 18.9533 9C18.9533 10.1398 18.694 11.2053 18.1755 12.1965C17.657 13.1877 16.9335 14.0182 16.005 14.688V16.0233C16.005 16.6186 15.7955 17.1258 15.3765 17.5448C14.9575 17.9638 14.4503 18.1733 13.855 18.1733H10.1325ZM10.1393 16.0293H13.8483V14.1348C13.8483 13.9591 13.8887 13.794 13.9695 13.6395C14.0503 13.4848 14.1633 13.3579 14.3083 13.2588L14.7393 12.9463C15.3856 12.4959 15.8922 11.9234 16.259 11.2288C16.6258 10.5341 16.8093 9.79359 16.8093 9.00725C16.8093 7.67542 16.3403 6.53967 15.4023 5.6C14.4641 4.6605 13.3296 4.19075 11.9988 4.19075C10.6678 4.19075 9.53367 4.66009 8.5965 5.59875C7.65934 6.53742 7.19075 7.67267 7.19075 9.0045C7.19075 9.7935 7.37309 10.5341 7.73775 11.2263C8.10242 11.9186 8.60792 12.4919 9.25425 12.9463L9.67925 13.2588C9.82425 13.3579 9.93717 13.4854 10.018 13.6413C10.0988 13.7971 10.1393 13.9616 10.1393 14.1348V16.0293ZM10.0385 21.9533C9.743 21.9533 9.49092 21.8477 9.28225 21.6365C9.07375 21.4252 8.9695 21.1719 8.9695 20.8768C8.9695 20.5816 9.07375 20.3299 9.28225 20.1218C9.49092 19.9134 9.743 19.8093 10.0385 19.8093H13.9615C14.257 19.8093 14.509 19.9148 14.7175 20.126C14.9262 20.3373 15.0305 20.5906 15.0305 20.8858C15.0305 21.1809 14.9262 21.4326 14.7175 21.6408C14.509 21.8491 14.257 21.9533 13.9615 21.9533H10.0385Z" fill="#8993F8"/>
</g>
</svg>
