<svg width="16" height="16" viewBox="0 0 16 16" fill="none" xmlns="http://www.w3.org/2000/svg">
<mask id="mask0_13708_233451" style="mask-type:alpha" maskUnits="userSpaceOnUse" x="0" y="0" width="16" height="16">
<rect width="16" height="16" fill="#D9D9D9"/>
</mask>
<g mask="url(#mask0_13708_233451)">
<path d="M7.99999 14.909C7.8481 14.909 7.69826 14.8856 7.55049 14.8387C7.40282 14.7917 7.26543 14.7199 7.13832 14.6232L3.25282 11.709C3.06782 11.5738 2.92632 11.4059 2.82832 11.2054C2.73021 11.0048 2.68115 10.7903 2.68115 10.5617V2.75804C2.68115 2.36115 2.82082 2.02304 3.10015 1.74371C3.37949 1.46437 3.7176 1.32471 4.11449 1.32471H11.8855C12.2824 1.32471 12.6205 1.46437 12.8998 1.74371C13.1792 2.02304 13.3188 2.36115 13.3188 2.75804V10.5617C13.3188 10.7903 13.2698 11.0048 13.1717 11.2054C13.0737 11.4059 12.9322 11.5738 12.7472 11.709L8.86165 14.6232C8.73454 14.7199 8.59715 14.7917 8.44949 14.8387C8.30171 14.8856 8.15187 14.909 7.99999 14.909ZM7.99999 13.4797L11.8855 10.5655V2.75804H4.11449V10.5655L7.99999 13.4797ZM7.31665 8.07437L6.37832 7.13588C6.24521 7.00276 6.08999 6.93693 5.91265 6.93837C5.73532 6.93982 5.58015 7.00432 5.44715 7.13187C5.31404 7.26765 5.24676 7.42493 5.24532 7.60371C5.24387 7.78237 5.30971 7.93826 5.44282 8.07138L6.81115 9.43588C6.95504 9.57965 7.12293 9.65154 7.31482 9.65154C7.5066 9.65154 7.67571 9.57965 7.82215 9.43588L10.5617 6.70037C10.6947 6.56726 10.7604 6.4121 10.759 6.23488C10.7575 6.05754 10.693 5.90232 10.5655 5.76921C10.4298 5.6361 10.2726 5.56882 10.0938 5.56737C9.91504 5.56593 9.75915 5.63176 9.62615 5.76487L7.31665 8.07437Z" fill="#D9DDFF"/>
</g>
</svg>
