<svg width="20" height="20" viewBox="0 0 20 20" fill="none" xmlns="http://www.w3.org/2000/svg">
<mask id="mask0_13708_233451" style="mask-type:alpha" maskUnits="userSpaceOnUse" x="0" y="0" width="20" height="20">
<rect width="20" height="20" fill="#D9D9D9"/>
</mask>
<g mask="url(#mask0_13708_233451)">
<path d="M9.99998 18.6363C9.81012 18.6363 9.62283 18.607 9.43811 18.5484C9.25352 18.4896 9.08179 18.3998 8.9229 18.279L4.06602 14.6363C3.83477 14.4673 3.6579 14.2574 3.5354 14.0067C3.41276 13.756 3.35144 13.4878 3.35144 13.2021V3.44755C3.35144 2.95144 3.52602 2.5288 3.87519 2.17963C4.22436 1.83047 4.647 1.65588 5.14311 1.65588H14.8569C15.353 1.65588 15.7756 1.83047 16.1248 2.17963C16.4739 2.5288 16.6485 2.95144 16.6485 3.44755V13.2021C16.6485 13.4878 16.5872 13.756 16.4646 14.0067C16.3421 14.2574 16.1652 14.4673 15.9339 14.6363L11.0771 18.279C10.9182 18.3998 10.7464 18.4896 10.5619 18.5484C10.3771 18.607 10.1898 18.6363 9.99998 18.6363ZM9.99998 16.8496L14.8569 13.2069V3.44755H5.14311V13.2069L9.99998 16.8496ZM9.14582 10.093L7.9729 8.91984C7.80651 8.75346 7.61248 8.67116 7.39082 8.67297C7.16915 8.67477 6.97519 8.7554 6.80894 8.91484C6.64255 9.08457 6.55845 9.28116 6.55665 9.50464C6.55484 9.72797 6.63714 9.92283 6.80352 10.0892L8.51394 11.7948C8.6938 11.9746 8.90366 12.0644 9.14352 12.0644C9.38325 12.0644 9.59463 11.9746 9.77769 11.7948L13.2021 8.37547C13.3683 8.20908 13.4505 8.01512 13.4487 7.79359C13.4469 7.57193 13.3663 7.3779 13.2069 7.21151C13.0373 7.04512 12.8407 6.96102 12.6173 6.95922C12.3938 6.95741 12.1989 7.03971 12.0327 7.20609L9.14582 10.093Z" fill="#D9DDFF"/>
</g>
</svg>
