<svg width="24" height="24" viewBox="0 0 24 24" fill="none" xmlns="http://www.w3.org/2000/svg">
<mask id="mask0_13701_3895" style="mask-type:alpha" maskUnits="userSpaceOnUse" x="0" y="0" width="24" height="24">
<rect width="24" height="24" fill="#D9D9D9"/>
</mask>
<g mask="url(#mask0_13701_3895)">
<path d="M6.13688 15.1902C6.35338 15.0802 6.58446 14.9972 6.83013 14.9412C7.0758 14.8851 7.32963 14.857 7.59163 14.857H8.13688V4.12449H7.59163C7.18763 4.12449 6.84413 4.26591 6.56113 4.54874C6.2783 4.83174 6.13688 5.17524 6.13688 5.57924V15.1902ZM10.2271 14.857H17.8629V4.12449H10.2271V14.857ZM7.59163 21.9532C6.60146 21.9532 5.76313 21.6099 5.07663 20.9232C4.38996 20.2367 4.04663 19.3984 4.04663 18.4082V5.57924C4.04663 4.58907 4.38996 3.75074 5.07663 3.06424C5.76313 2.37757 6.60146 2.03424 7.59163 2.03424H17.8031C18.3985 2.03424 18.9056 2.24374 19.3246 2.66274C19.7436 3.08174 19.9531 3.58891 19.9531 4.18424V16.312C19.9531 16.4843 19.902 16.6406 19.7999 16.7807C19.6977 16.9207 19.542 17.0344 19.3326 17.1217C19.0941 17.2189 18.9059 17.382 18.7679 17.611C18.6299 17.84 18.5609 18.1043 18.5609 18.404C18.5609 18.7035 18.6279 18.968 18.7619 19.1975C18.896 19.427 19.082 19.5882 19.3199 19.681C19.5164 19.7603 19.6711 19.8894 19.7839 20.0682C19.8967 20.2471 19.9531 20.4589 19.9531 20.7037V20.8642C19.9531 21.1652 19.8505 21.422 19.6454 21.6345C19.44 21.847 19.1943 21.9532 18.9081 21.9532H7.59163ZM7.59163 19.863H16.7911C16.6873 19.6453 16.608 19.4132 16.5531 19.1667C16.4981 18.9204 16.4706 18.6669 16.4706 18.4062C16.4706 18.1524 16.4965 17.901 16.5484 17.652C16.6002 17.403 16.6811 17.1701 16.7911 16.9532H7.59163C7.18113 16.9532 6.83605 17.097 6.55638 17.3845C6.27671 17.6718 6.13688 18.013 6.13688 18.408C6.13688 18.8187 6.27671 19.1638 6.55638 19.4435C6.83605 19.7232 7.18113 19.863 7.59163 19.863Z" fill="#D9DDFF"/>
</g>
</svg>
