<svg width="28" height="28" viewBox="0 0 28 28" fill="none" xmlns="http://www.w3.org/2000/svg">
<mask id="mask0_13708_235388" style="mask-type:alpha" maskUnits="userSpaceOnUse" x="0" y="0" width="28" height="28">
<rect width="28" height="28" fill="#D9D9D9"/>
</mask>
<g mask="url(#mask0_13708_235388)">
<path d="M9.52089 18.4791V20.0104C9.52089 20.242 9.59682 20.4335 9.74868 20.585C9.90054 20.7366 10.0926 20.8125 10.3247 20.8125C10.5569 20.8125 10.7483 20.7366 10.899 20.585C11.0497 20.4335 11.1251 20.242 11.1251 20.0104V18.4791H12.6271C12.8589 18.4791 13.0505 18.4032 13.202 18.2513C13.3535 18.0995 13.4292 17.9075 13.4292 17.6753C13.4292 17.4431 13.3535 17.2517 13.202 17.101C13.0505 16.9503 12.8589 16.875 12.6271 16.875H11.1251V15.3729C11.1251 15.1411 11.0492 14.9495 10.8976 14.798C10.7457 14.6465 10.5537 14.5708 10.3215 14.5708C10.0892 14.5708 9.89763 14.6465 9.74693 14.798C9.59624 14.9495 9.52089 15.1411 9.52089 15.3729V16.875H7.98964C7.75806 16.875 7.56653 16.9508 7.41506 17.1025C7.26339 17.2543 7.18756 17.4463 7.18756 17.6785C7.18756 17.9109 7.26339 18.1024 7.41506 18.2531C7.56653 18.4038 7.75806 18.4791 7.98964 18.4791H9.52089ZM15.9562 19.9666H20.0104C20.242 19.9666 20.4335 19.8907 20.585 19.7388C20.7366 19.587 20.8125 19.395 20.8125 19.1628C20.8125 18.9306 20.7366 18.7392 20.585 18.5885C20.4335 18.4378 20.242 18.3625 20.0104 18.3625H15.9562C15.7244 18.3625 15.5328 18.4383 15.3813 18.59C15.2299 18.7418 15.1541 18.9338 15.1541 19.166C15.1541 19.3984 15.2299 19.5899 15.3813 19.7406C15.5328 19.8913 15.7244 19.9666 15.9562 19.9666ZM15.9562 17.0208H20.0104C20.242 17.0208 20.4335 16.9449 20.585 16.793C20.7366 16.6412 20.8125 16.4491 20.8125 16.217C20.8125 15.9848 20.7366 15.7934 20.585 15.6427C20.4335 15.492 20.242 15.4166 20.0104 15.4166H15.9562C15.7244 15.4166 15.5328 15.4925 15.3813 15.6441C15.2299 15.796 15.1541 15.988 15.1541 16.2202C15.1541 16.4525 15.2299 16.6441 15.3813 16.7948C15.5328 16.9455 15.7244 17.0208 15.9562 17.0208ZM8.28131 10.7333H12.3355C12.5673 10.7333 12.7589 10.6574 12.9103 10.5056C13.0618 10.3537 13.1376 10.1617 13.1376 9.92952C13.1376 9.69735 13.0618 9.50592 12.9103 9.35522C12.7589 9.20453 12.5673 9.12918 12.3355 9.12918H8.28131C8.04972 9.12918 7.8582 9.20511 7.70672 9.35697C7.55506 9.50884 7.47922 9.70085 7.47922 9.93302C7.47922 10.1652 7.55506 10.3566 7.70672 10.5073C7.8582 10.658 8.04972 10.7333 8.28131 10.7333ZM6.03372 24.4746C5.33917 24.4746 4.74747 24.2302 4.25864 23.7414C3.76981 23.2526 3.52539 22.6609 3.52539 21.9663V6.03372C3.52539 5.33917 3.76981 4.74747 4.25864 4.25864C4.74747 3.76981 5.33917 3.52539 6.03372 3.52539H21.9663C22.6609 3.52539 23.2526 3.76981 23.7414 4.25864C24.2302 4.74747 24.4746 5.33917 24.4746 6.03372V21.9663C24.4746 22.6609 24.2302 23.2526 23.7414 23.7414C23.2526 24.2302 22.6609 24.4746 21.9663 24.4746H6.03372ZM6.03372 21.9663H21.9663V6.03372H6.03372V21.9663ZM18.0125 11.1251L19.0771 12.2188C19.2386 12.3841 19.4273 12.4667 19.6429 12.4667C19.8587 12.4667 20.0493 12.3841 20.2146 12.2188C20.3701 12.0633 20.4503 11.8761 20.4552 11.6573C20.46 11.4386 20.3847 11.2466 20.2291 11.0813L19.1208 9.95839L20.2 8.87922C20.3555 8.72289 20.4333 8.5404 20.4333 8.33176C20.4333 8.12313 20.3531 7.93617 20.1927 7.77089C20.0323 7.60561 19.8475 7.52054 19.6385 7.51568C19.4295 7.51082 19.2423 7.59103 19.0771 7.75631L18.0125 8.82089L16.9187 7.74172C16.7534 7.57645 16.5639 7.49624 16.35 7.5011C16.1361 7.50596 15.9465 7.59103 15.7812 7.75631C15.6159 7.92158 15.5357 8.11117 15.5406 8.32506C15.5455 8.53895 15.6305 8.72853 15.7958 8.89381L16.875 9.95839L15.7666 11.0959C15.6208 11.2514 15.5503 11.4337 15.5552 11.6428C15.56 11.8518 15.6427 12.0389 15.8031 12.2042C15.9635 12.3695 16.1482 12.4546 16.3573 12.4594C16.5663 12.4643 16.7534 12.3841 16.9187 12.2188L18.0125 11.1251Z" fill="#D9DDFF"/>
</g>
</svg>
