<svg width="24" height="24" viewBox="0 0 24 24" fill="none" xmlns="http://www.w3.org/2000/svg">
<mask id="mask0_13714_331962" style="mask-type:alpha" maskUnits="userSpaceOnUse" x="0" y="0" width="24" height="24">
<rect width="24" height="24" fill="#D9D9D9"/>
</mask>
<g mask="url(#mask0_13714_331962)">
<path d="M5.17173 21.9532C4.5764 21.9532 4.06923 21.7437 3.65023 21.3247C3.23123 20.9057 3.02173 20.3985 3.02173 19.8032V6.1467C3.02173 5.55137 3.23123 5.0442 3.65023 4.6252C4.06923 4.2062 4.5764 3.9967 5.17173 3.9967H6.22498V2.99995C6.22498 2.72562 6.32465 2.48987 6.52398 2.2927C6.72315 2.09537 6.9599 1.9967 7.23423 1.9967C7.50856 1.9967 7.74431 2.09537 7.94148 2.2927C8.13881 2.48987 8.23748 2.72562 8.23748 2.99995V3.9967H15.7625V2.99995C15.7625 2.72562 15.8621 2.48987 16.0615 2.2927C16.2606 2.09537 16.4974 1.9967 16.7717 1.9967C17.0461 1.9967 17.2818 2.09537 17.479 2.2927C17.6763 2.48987 17.775 2.72562 17.775 2.99995V3.9967H18.8282C19.4236 3.9967 19.9307 4.2062 20.3497 4.6252C20.7687 5.0442 20.9782 5.55137 20.9782 6.1467V19.8032C20.9782 20.3985 20.7687 20.9057 20.3497 21.3247C19.9307 21.7437 19.4236 21.9532 18.8282 21.9532H5.17173ZM5.17173 19.8032H18.8282V10.05H5.17173V19.8032ZM5.17173 8.17495H18.8282V6.1467H5.17173V8.17495Z" fill="#D9DDFF"/>
</g>
</svg>
