<svg width="24" height="24" viewBox="0 0 24 24" fill="none" xmlns="http://www.w3.org/2000/svg">
<mask id="mask0_13708_235372" style="mask-type:alpha" maskUnits="userSpaceOnUse" x="0" y="0" width="24" height="24">
<rect width="24" height="24" fill="#D9D9D9"/>
</mask>
<g mask="url(#mask0_13708_235372)">
<path d="M21.1125 13.0397H19.0167C18.7346 13.0397 18.4928 12.939 18.2915 12.7377C18.0903 12.5364 17.9897 12.2946 17.9897 12.0125C17.9897 11.7303 18.0903 11.4885 18.2915 11.2872C18.4928 11.0859 18.7346 10.9852 19.0167 10.9852H21.1125C21.3948 10.9852 21.6366 11.0859 21.8377 11.2872C22.0391 11.4885 22.1397 11.7303 22.1397 12.0125C22.1397 12.2946 22.0391 12.5364 21.8377 12.7377C21.6366 12.939 21.3948 13.0397 21.1125 13.0397ZM16.651 16.6712C16.8253 16.4469 17.0525 16.313 17.3325 16.2695C17.6126 16.226 17.8649 16.2872 18.0892 16.4532L19.761 17.6945C19.9935 17.8605 20.1294 18.0835 20.1687 18.3635C20.2081 18.6436 20.1406 18.9 19.9662 19.1325C19.7921 19.3608 19.5649 19.4967 19.2847 19.5402C19.0047 19.5837 18.7506 19.5225 18.5222 19.3565L16.8505 18.1092C16.618 17.9432 16.4831 17.7202 16.4457 17.4402C16.4084 17.16 16.4768 16.9037 16.651 16.6712ZM19.7485 6.30546L18.0892 7.54671C17.8649 7.71271 17.6126 7.77396 17.3325 7.73046C17.0525 7.68696 16.8253 7.55305 16.651 7.32872C16.4768 7.09622 16.4095 6.84197 16.449 6.56597C16.4885 6.29013 16.6265 6.06505 16.863 5.89072L18.5282 4.64346C18.7566 4.47746 19.0097 4.41622 19.2877 4.45972C19.5659 4.50322 19.7921 4.63913 19.9662 4.86747C20.1406 5.09997 20.206 5.35422 20.1625 5.63022C20.119 5.90605 19.981 6.13113 19.7485 6.30546ZM4.78523 15.0782H3.98973C3.38823 15.0544 2.88298 14.83 2.47398 14.4052C2.06481 13.9804 1.86023 13.4714 1.86023 12.8782V11.1467C1.86023 10.5294 2.07673 10.0042 2.50973 9.57121C2.94273 9.13821 3.4679 8.92171 4.08523 8.92171H7.67873L11.1325 6.84171C11.4886 6.62221 11.8491 6.61813 12.2137 6.82946C12.5784 7.04096 12.7607 7.3538 12.7607 7.76796V16.232C12.7607 16.6461 12.5784 16.959 12.2137 17.1705C11.8491 17.3818 11.4886 17.3777 11.1325 17.1582L7.67873 15.0782H6.97123V17.9102C6.97123 18.2084 6.86356 18.4651 6.64823 18.6805C6.43306 18.8956 6.1764 19.0032 5.87823 19.0032C5.58006 19.0032 5.3234 18.8956 5.10823 18.6805C4.8929 18.4651 4.78523 18.2084 4.78523 17.9102V15.0782ZM14.1357 15.4532V8.54671C14.6372 8.95438 15.031 9.45521 15.317 10.0492C15.6031 10.6432 15.7462 11.2935 15.7462 12C15.7462 12.7065 15.6031 13.3567 15.317 13.9507C15.031 14.5447 14.6372 15.0455 14.1357 15.4532Z" fill="#8993F8"/>
</g>
</svg>
