<svg width="16" height="16" viewBox="0 0 16 16" fill="none" xmlns="http://www.w3.org/2000/svg">
<mask id="mask0_13701_1624" style="mask-type:alpha" maskUnits="userSpaceOnUse" x="0" y="0" width="16" height="16">
<rect width="16" height="16" fill="#D9D9D9"/>
</mask>
<g mask="url(#mask0_13701_1624)">
<path d="M7.07134 9.07717L5.749 7.75484C5.61156 7.61728 5.44606 7.5485 5.2525 7.5485C5.05906 7.5485 4.89322 7.61761 4.755 7.75584C4.61689 7.89395 4.5485 8.05978 4.54984 8.25334C4.55117 8.44678 4.61995 8.61161 4.75617 8.74784L6.562 10.5537C6.70734 10.7 6.87689 10.7732 7.07067 10.7732C7.26434 10.7732 7.43439 10.7 7.58084 10.5537L11.221 6.91334C11.3592 6.77522 11.4283 6.61011 11.4283 6.418C11.4283 6.22578 11.3592 6.06061 11.221 5.9225C11.0829 5.78428 10.9171 5.71517 10.7235 5.71517C10.5301 5.71517 10.365 5.78356 10.2283 5.92033L7.07134 9.07717ZM8 14.6355C7.07978 14.6355 6.21639 14.4612 5.40984 14.1125C4.60328 13.7638 3.90167 13.2906 3.305 12.6928C2.70845 12.0952 2.23589 11.3934 1.88734 10.5877C1.53878 9.78189 1.3645 8.91934 1.3645 8C1.3645 7.07978 1.53884 6.21639 1.8875 5.40984C2.23617 4.60328 2.70939 3.90167 3.30717 3.305C3.90484 2.70845 4.60656 2.23589 5.41234 1.88734C6.21811 1.53878 7.08067 1.3645 8 1.3645C8.92022 1.3645 9.78361 1.53884 10.5902 1.8875C11.3967 2.23617 12.0983 2.70939 12.695 3.30717C13.2916 3.90484 13.7641 4.60656 14.1127 5.41234C14.4612 6.21811 14.6355 7.08067 14.6355 8C14.6355 8.92022 14.4612 9.78361 14.1125 10.5902C13.7638 11.3967 13.2906 12.0983 12.6928 12.695C12.0952 13.2916 11.3934 13.7641 10.5877 14.1127C9.78189 14.4612 8.91934 14.6355 8 14.6355Z" fill="#D9DDFF"/>
</g>
</svg>
