<svg width="20" height="20" viewBox="0 0 20 20" fill="none" xmlns="http://www.w3.org/2000/svg">
<mask id="mask0_13708_233456" style="mask-type:alpha" maskUnits="userSpaceOnUse" x="0" y="0" width="20" height="20">
<rect width="20" height="20" fill="#D9D9D9"/>
</mask>
<g mask="url(#mask0_13708_233456)">
<path d="M8.83911 11.3464L7.18619 9.69348C7.01439 9.52154 6.80751 9.43557 6.56557 9.43557C6.32376 9.43557 6.11647 9.52196 5.94369 9.69473C5.77105 9.86737 5.68557 10.0747 5.68723 10.3166C5.6889 10.5584 5.77487 10.7645 5.94515 10.9347L8.20244 13.192C8.38411 13.3749 8.59605 13.4664 8.83827 13.4664C9.08036 13.4664 9.29293 13.3749 9.47598 13.192L14.0262 8.64161C14.199 8.46897 14.2854 8.26258 14.2854 8.02244C14.2854 7.78216 14.199 7.5757 14.0262 7.40307C13.8536 7.23029 13.6463 7.1439 13.4043 7.1439C13.1625 7.1439 12.9562 7.22939 12.7854 7.40036L8.83911 11.3464ZM9.99994 18.2943C8.84966 18.2943 7.77043 18.0764 6.76223 17.6406C5.75404 17.2047 4.87702 16.6132 4.13119 15.866C3.3855 15.1189 2.7948 14.2417 2.35911 13.2345C1.92341 12.2273 1.70557 11.1491 1.70557 9.99994C1.70557 8.84966 1.92348 7.77043 2.35932 6.76223C2.79515 5.75404 3.38668 4.87702 4.1339 4.13119C4.88098 3.3855 5.75814 2.7948 6.76536 2.35911C7.77258 1.92341 8.85077 1.70557 9.99994 1.70557C11.1502 1.70557 12.2295 1.92348 13.2376 2.35932C14.2458 2.79515 15.1229 3.38668 15.8687 4.1339C16.6144 4.88098 17.2051 5.75814 17.6408 6.76536C18.0765 7.77258 18.2943 8.85077 18.2943 9.99994C18.2943 11.1502 18.0764 12.2295 17.6406 13.2377C17.2047 14.2458 16.6132 15.1229 15.866 15.8687C15.1189 16.6144 14.2417 17.2051 13.2345 17.6408C12.2273 18.0765 11.1491 18.2943 9.99994 18.2943Z" fill="#D9DDFF"/>
</g>
</svg>
