<svg width="28" height="28" viewBox="0 0 28 28" fill="none" xmlns="http://www.w3.org/2000/svg">
<mask id="mask0_13708_235393" style="mask-type:alpha" maskUnits="userSpaceOnUse" x="0" y="0" width="28" height="28">
<rect width="28" height="28" fill="#D9D9D9"/>
</mask>
<g mask="url(#mask0_13708_235393)">
<path d="M7.22956 25.6121C6.2169 25.6121 5.35123 25.2576 4.63257 24.5487C3.9139 23.8397 3.55457 22.9789 3.55457 21.9662V20.6106C3.55457 19.9253 3.79665 19.3407 4.28082 18.8565C4.76498 18.3723 5.34968 18.1302 6.0349 18.1302H6.7769V4.89615C6.7769 4.2016 7.02131 3.6099 7.51015 3.12107C7.99898 2.63223 8.59068 2.38782 9.28523 2.38782H21.9441C22.6387 2.38782 23.2304 2.63223 23.7192 3.12107C24.2081 3.6099 24.4525 4.2016 24.4525 4.89615V21.9662C24.4525 22.9789 24.0931 23.8397 23.3745 24.5487C22.6558 25.2576 21.7901 25.6121 20.7775 25.6121H7.22956ZM20.7775 23.1037C21.108 23.1037 21.3851 22.9947 21.6087 22.7768C21.8323 22.5588 21.9441 22.2886 21.9441 21.9662V4.89615H9.28523V18.1302H17.1316C17.8262 18.1302 18.4179 18.3747 18.9067 18.8635C19.3956 19.3523 19.64 19.944 19.64 20.6386V21.9662C19.64 22.2886 19.749 22.5588 19.9669 22.7768C20.1849 22.9947 20.4551 23.1037 20.7775 23.1037ZM11.7822 10.1943C11.4575 10.1943 11.1788 10.0781 10.9463 9.84574C10.7139 9.61318 10.5977 9.33454 10.5977 9.00982C10.5977 8.68529 10.7139 8.40675 10.9463 8.17419C11.1788 7.94164 11.4575 7.82536 11.7822 7.82536H19.4472C19.7719 7.82536 20.0505 7.94164 20.2828 8.17419C20.5154 8.40675 20.6316 8.68529 20.6316 9.00982C20.6316 9.33454 20.5154 9.61318 20.2828 9.84574C20.0505 10.0781 19.7719 10.1943 19.4472 10.1943H11.7822ZM11.7822 13.8757C11.4575 13.8757 11.1788 13.7594 10.9463 13.5269C10.7139 13.2945 10.5977 13.016 10.5977 12.6912C10.5977 12.3665 10.7139 12.088 10.9463 11.8556C11.1788 11.6231 11.4575 11.5068 11.7822 11.5068H19.4472C19.7719 11.5068 20.0505 11.6231 20.2828 11.8556C20.5154 12.088 20.6316 12.3665 20.6316 12.6912C20.6316 13.016 20.5154 13.2945 20.2828 13.5269C20.0505 13.7594 19.7719 13.8757 19.4472 13.8757H11.7822Z" fill="#D9DDFF"/>
</g>
</svg>
