<svg width="16" height="16" viewBox="0 0 16 16" fill="none" xmlns="http://www.w3.org/2000/svg">
<mask id="mask0_13701_1632" style="mask-type:alpha" maskUnits="userSpaceOnUse" x="0" y="0" width="16" height="16">
<rect width="16" height="16" fill="#D9D9D9"/>
</mask>
<g mask="url(#mask0_13701_1632)">
<path d="M4.13119 14.6355C3.55252 14.6355 3.05786 14.4329 2.64719 14.0278C2.23652 13.6227 2.03119 13.1308 2.03119 12.5522V11.7775C2.03119 11.3859 2.16952 11.0518 2.44619 10.7752C2.72286 10.4985 3.05697 10.3602 3.44852 10.3602H3.87252V2.79784C3.87252 2.40095 4.01219 2.06284 4.29152 1.7835C4.57086 1.50417 4.90897 1.3645 5.30586 1.3645H12.5395C12.9364 1.3645 13.2745 1.50417 13.5539 1.7835C13.8332 2.06284 13.9729 2.40095 13.9729 2.79784V12.5522C13.9729 13.1308 13.7675 13.6227 13.3569 14.0278C12.9462 14.4329 12.4515 14.6355 11.8729 14.6355H4.13119ZM11.8729 13.2022C12.0617 13.2022 12.2201 13.1399 12.3479 13.0153C12.4756 12.8908 12.5395 12.7364 12.5395 12.5522V2.79784H5.30586V10.3602H9.78952C10.1864 10.3602 10.5245 10.4998 10.8039 10.7792C11.0832 11.0585 11.2229 11.3966 11.2229 11.7935V12.5522C11.2229 12.7364 11.2851 12.8908 11.4097 13.0153C11.5342 13.1399 11.6886 13.2022 11.8729 13.2022ZM6.73269 5.82534C6.54713 5.82534 6.38791 5.75895 6.25502 5.62617C6.12224 5.49328 6.05586 5.33406 6.05586 5.1485C6.05586 4.96306 6.12224 4.80389 6.25502 4.671C6.38791 4.53811 6.54713 4.47167 6.73269 4.47167H11.1127C11.2982 4.47167 11.4574 4.53811 11.5902 4.671C11.7231 4.80389 11.7895 4.96306 11.7895 5.1485C11.7895 5.33406 11.7231 5.49328 11.5902 5.62617C11.4574 5.75895 11.2982 5.82534 11.1127 5.82534H6.73269ZM6.73269 7.929C6.54713 7.929 6.38791 7.86256 6.25502 7.72967C6.12224 7.59689 6.05586 7.43772 6.05586 7.25217C6.05586 7.06661 6.12224 6.90745 6.25502 6.77467C6.38791 6.64178 6.54713 6.57534 6.73269 6.57534H11.1127C11.2982 6.57534 11.4574 6.64178 11.5902 6.77467C11.7231 6.90745 11.7895 7.06661 11.7895 7.25217C11.7895 7.43772 11.7231 7.59689 11.5902 7.72967C11.4574 7.86256 11.2982 7.929 11.1127 7.929H6.73269Z" fill="#D9DDFF"/>
</g>
</svg>
