<svg width="24" height="24" viewBox="0 0 24 24" fill="none" xmlns="http://www.w3.org/2000/svg">
<mask id="mask0_13714_331967" style="mask-type:alpha" maskUnits="userSpaceOnUse" x="0" y="0" width="24" height="24">
<rect width="24" height="24" fill="#D9D9D9"/>
</mask>
<g mask="url(#mask0_13714_331967)">
<path d="M12 21.9533C10.6305 21.9533 9.34 21.6921 8.1285 21.1696C6.91717 20.6471 5.86192 19.9363 4.96275 19.0373C4.06375 18.1381 3.353 17.0829 2.8305 15.8716C2.308 14.6601 2.04675 13.3696 2.04675 12.0001C2.04675 9.85073 2.66759 7.91314 3.90925 6.18731C5.15092 4.46131 6.78625 3.26156 8.81525 2.58806C9.30109 2.41823 9.7535 2.47548 10.1725 2.75981C10.5915 3.04431 10.801 3.43548 10.801 3.93331C10.801 4.28981 10.7066 4.60906 10.5178 4.89106C10.3288 5.17323 10.0787 5.36189 9.7675 5.45706C8.39384 5.84073 7.272 6.64239 6.402 7.86206C5.53184 9.08156 5.09675 10.4609 5.09675 12.0001C5.09675 13.9096 5.76992 15.5375 7.11625 16.8838C8.46259 18.2301 10.0905 18.9033 12 18.9033C12.8512 18.9033 13.6691 18.7561 14.4538 18.4616C15.2386 18.1669 15.9417 17.7481 16.563 17.2051C16.8322 16.9684 17.1431 16.8429 17.4958 16.8286C17.8483 16.8142 18.1491 16.9131 18.3983 17.1251C18.8049 17.4652 19.0167 17.8799 19.0335 18.3691C19.0503 18.8582 18.8597 19.2669 18.4615 19.5951C17.5545 20.3746 16.5581 20.9625 15.4723 21.3588C14.3864 21.7551 13.229 21.9533 12 21.9533ZM18.8908 12.0001C18.8908 10.5106 18.4598 9.16323 17.5978 7.95806C16.7359 6.75273 15.6058 5.91906 14.2075 5.45706C13.8963 5.34556 13.6442 5.14973 13.451 4.86956C13.258 4.58956 13.1615 4.27748 13.1615 3.93331C13.1615 3.44331 13.3669 3.05614 13.7778 2.77181C14.1886 2.48731 14.6451 2.42606 15.1473 2.58806C17.1809 3.22173 18.8237 4.40664 20.0755 6.14281C21.3273 7.87881 21.9533 9.83123 21.9533 12.0001C21.9533 12.3012 21.9387 12.6053 21.9095 12.9123C21.8803 13.2193 21.8323 13.5379 21.7653 13.8681C21.6779 14.3456 21.4236 14.6941 21.0023 14.9138C20.5808 15.1336 20.1251 15.1501 19.6353 14.9631C19.3034 14.8384 19.0535 14.6195 18.8855 14.3063C18.7177 13.9931 18.6733 13.6644 18.7523 13.3201C18.8066 13.0981 18.8433 12.8875 18.8623 12.6883C18.8813 12.4893 18.8908 12.2599 18.8908 12.0001Z" fill="#D9DDFF"/>
</g>
</svg>
