<svg width="25" height="24" viewBox="0 0 25 24" fill="none" xmlns="http://www.w3.org/2000/svg">
<mask id="mask0_13708_235372" style="mask-type:alpha" maskUnits="userSpaceOnUse" x="0" y="0" width="25" height="24">
<rect x="0.5" width="24" height="24" fill="#D9D9D9"/>
</mask>
<g mask="url(#mask0_13708_235372)">
<path d="M12.5 21.0788L9.60222 22.0386C9.49022 22.0759 9.37622 22.1049 9.26022 22.1256C9.14439 22.1462 9.03164 22.1566 8.92197 22.1566C8.34714 22.1566 7.84556 21.9535 7.41722 21.5473C6.98906 21.1411 6.77497 20.6261 6.77497 20.0023V14.9893L4.15322 10.7528C4.04556 10.5828 3.96381 10.4015 3.90797 10.2088C3.85197 10.0161 3.82397 9.82047 3.82397 9.6218C3.82397 9.42314 3.85197 9.22747 3.90797 9.0348C3.96381 8.84214 4.04556 8.6608 4.15322 8.4908L7.35697 3.3033C7.55447 2.98314 7.81606 2.7333 8.14173 2.5538C8.46723 2.37414 8.81672 2.2843 9.19022 2.2843H15.8097C16.1867 2.2843 16.5368 2.3733 16.86 2.5513C17.183 2.72947 17.444 2.98014 17.643 3.3033L20.8467 8.4908C20.9544 8.6608 21.0361 8.84214 21.092 9.0348C21.148 9.22747 21.176 9.42314 21.176 9.6218C21.176 9.82047 21.148 10.0161 21.092 10.2088C21.0361 10.4015 20.9544 10.5828 20.8467 10.7528L18.225 14.9893V20.0023C18.225 20.6261 18.0109 21.1411 17.5827 21.5473C17.1544 21.9535 16.6521 22.1566 16.0757 22.1566C15.9676 22.1566 15.8556 22.1462 15.7397 22.1256C15.6237 22.1049 15.5097 22.0759 15.3977 22.0386L12.5 21.0788ZM12.5 18.8168L16.075 19.9941V16.9593H8.92497V19.9941L12.5 18.8168ZM9.17772 14.8093H15.8222L19.026 9.6218L15.8222 4.4343H9.17772L5.97397 9.6218L9.17772 14.8093ZM11.474 10.7446L14.8157 7.3903C15.0151 7.18264 15.2506 7.07989 15.5225 7.08205C15.7945 7.08422 16.0342 7.18097 16.2417 7.3723C16.4534 7.57964 16.5593 7.8223 16.5595 8.1003C16.5596 8.37847 16.4559 8.6213 16.2482 8.8288L12.232 12.8576C12.0155 13.0772 11.7626 13.1861 11.4732 13.1841C11.1839 13.1821 10.9294 13.0732 10.7097 12.8576L8.74022 10.8946C8.53256 10.6881 8.42872 10.4475 8.42872 10.1728C8.42872 9.89814 8.53256 9.65705 8.74022 9.44955C8.94789 9.24189 9.18772 9.13905 9.45972 9.14105C9.73189 9.14305 9.97172 9.24589 10.1792 9.44955L11.474 10.7446Z" fill="#D9DDFF"/>
</g>
</svg>
