<svg width="17" height="16" viewBox="0 0 17 16" fill="none" xmlns="http://www.w3.org/2000/svg">
<mask id="mask0_13708_235338" style="mask-type:alpha" maskUnits="userSpaceOnUse" x="0" y="0" width="17" height="16">
<rect x="0.5" width="16" height="16" fill="#D9D9D9"/>
</mask>
<g mask="url(#mask0_13708_235338)">
<path d="M8.49994 14.0525L6.56811 14.6923C6.49344 14.7172 6.41744 14.7366 6.34011 14.7503C6.26289 14.7641 6.18772 14.771 6.11461 14.771C5.73139 14.771 5.397 14.6356 5.11144 14.3648C4.826 14.0941 4.68328 13.7507 4.68328 13.3348V9.99283L2.93544 7.16849C2.86366 7.05516 2.80916 6.93427 2.77194 6.80583C2.73461 6.67738 2.71594 6.54694 2.71594 6.41449C2.71594 6.28205 2.73461 6.15161 2.77194 6.02316C2.80916 5.89472 2.86366 5.77383 2.93544 5.66049L5.07128 2.20216C5.20294 1.98872 5.37733 1.82216 5.59444 1.70249C5.81144 1.58272 6.04444 1.52283 6.29344 1.52283H10.7064C10.9578 1.52283 11.1912 1.58216 11.4066 1.70083C11.6219 1.8196 11.7959 1.98672 11.9286 2.20216L14.0644 5.66049C14.1362 5.77383 14.1907 5.89472 14.2279 6.02316C14.2653 6.15161 14.2839 6.28205 14.2839 6.41449C14.2839 6.54694 14.2653 6.67738 14.2279 6.80583C14.1907 6.93427 14.1362 7.05516 14.0644 7.16849L12.3166 9.99283V13.3348C12.3166 13.7507 12.1739 14.0941 11.8884 14.3648C11.6029 14.6356 11.268 14.771 10.8838 14.771C10.8117 14.771 10.737 14.7641 10.6598 14.7503C10.5824 14.7366 10.5064 14.7172 10.4318 14.6923L8.49994 14.0525ZM8.49994 12.5445L10.8833 13.3293V11.3062H6.11661V13.3293L8.49994 12.5445ZM6.28511 9.87283H10.7148L12.8506 6.41449L10.7148 2.95616H6.28511L4.14928 6.41449L6.28511 9.87283ZM7.81594 7.163L10.0438 4.92683C10.1767 4.78838 10.3337 4.71988 10.5149 4.72133C10.6963 4.72277 10.8561 4.78727 10.9944 4.91483C11.1356 5.05305 11.2062 5.21483 11.2063 5.40016C11.2064 5.58561 11.1372 5.74749 10.9988 5.88583L8.32128 8.57166C8.17694 8.71811 8.00833 8.79066 7.81544 8.78933C7.62255 8.78799 7.45289 8.71544 7.30644 8.57166L5.99344 7.26299C5.855 7.12533 5.78578 6.96494 5.78578 6.78183C5.78578 6.59872 5.855 6.43799 5.99344 6.29966C6.13189 6.16122 6.29178 6.09266 6.47311 6.09399C6.65455 6.09533 6.81444 6.16388 6.95278 6.29966L7.81594 7.163Z" fill="#D9DDFF"/>
</g>
</svg>
