<svg width="17" height="16" viewBox="0 0 17 16" fill="none" xmlns="http://www.w3.org/2000/svg">
<mask id="mask0_13701_1425" style="mask-type:alpha" maskUnits="userSpaceOnUse" x="0" y="0" width="17" height="16">
<rect x="0.5" width="16" height="16" fill="#D9D9D9"/>
</mask>
<g mask="url(#mask0_13701_1425)">
<path d="M1.19451 12.0221C0.9984 12.0221 0.829955 11.9517 0.689178 11.8108C0.548289 11.67 0.477844 11.5016 0.477844 11.3055V10.9528C0.477844 10.4575 0.726178 10.06 1.22284 9.76048C1.71951 9.46092 2.36746 9.31114 3.16668 9.31114C3.31212 9.31114 3.44434 9.31464 3.56334 9.32164C3.68246 9.32864 3.79518 9.34036 3.90151 9.35681C3.74351 9.5957 3.62707 9.8447 3.55218 10.1038C3.47729 10.3629 3.43984 10.6333 3.43984 10.9148V12.0221H1.19451ZM5.19451 12.0221C4.9984 12.0221 4.82996 11.9517 4.68918 11.8108C4.54829 11.67 4.47784 11.5016 4.47784 11.3055V10.9166C4.47784 10.5642 4.57296 10.2375 4.76318 9.93664C4.9534 9.63564 5.23029 9.37414 5.59384 9.15214C5.9574 8.93014 6.38668 8.76225 6.88168 8.64848C7.37657 8.5347 7.91462 8.47781 8.49584 8.47781C9.08818 8.47781 9.63118 8.5347 10.1248 8.64848C10.6184 8.76225 11.047 8.93014 11.4105 9.15214C11.7741 9.37414 12.0502 9.63442 12.239 9.93298C12.4278 10.2315 12.5222 10.5594 12.5222 10.9166V11.3055C12.5222 11.5016 12.4517 11.67 12.3108 11.8108C12.1701 11.9517 12.0016 12.0221 11.8055 12.0221H5.19451ZM13.5602 12.0221V10.9166C13.5602 10.6302 13.5235 10.357 13.45 10.0971C13.3766 9.83725 13.2664 9.59075 13.1195 9.35764C13.2258 9.34064 13.3366 9.32864 13.4517 9.32164C13.5669 9.31464 13.6941 9.31114 13.8333 9.31114C14.6358 9.31114 15.2845 9.46042 15.7795 9.75898C16.2746 10.0574 16.5222 10.4544 16.5222 10.95V11.3055C16.5222 11.5016 16.4517 11.67 16.3108 11.8108C16.1701 11.9517 16.0016 12.0221 15.8055 12.0221H13.5602ZM3.16668 8.57714C2.80046 8.57714 2.48701 8.44675 2.22634 8.18598C1.96557 7.9252 1.83518 7.61175 1.83518 7.24564C1.83518 6.86831 1.96557 6.55209 2.22634 6.29698C2.48712 6.04175 2.80057 5.91414 3.16668 5.91414C3.54401 5.91414 3.86023 6.04175 4.11534 6.29698C4.37057 6.5522 4.49818 6.86842 4.49818 7.24564C4.49818 7.61186 4.37057 7.92531 4.11534 8.18598C3.86012 8.44675 3.5439 8.57714 3.16668 8.57714ZM13.8333 8.57714C13.4671 8.57714 13.1537 8.44675 12.893 8.18598C12.6322 7.9252 12.5018 7.61175 12.5018 7.24564C12.5018 6.86831 12.6322 6.55209 12.893 6.29698C13.1538 6.04175 13.4672 5.91414 13.8333 5.91414C14.2107 5.91414 14.5269 6.04175 14.782 6.29698C15.0372 6.5522 15.1648 6.86842 15.1648 7.24564C15.1648 7.61186 15.0372 7.92531 14.782 8.18598C14.5268 8.44675 14.2106 8.57714 13.8333 8.57714ZM8.49601 7.89848C7.93657 7.89848 7.46034 7.70192 7.06734 7.30881C6.67434 6.91559 6.47784 6.43814 6.47784 5.87648C6.47784 5.31048 6.67446 4.83198 7.06768 4.44098C7.4609 4.04986 7.93834 3.85431 8.50001 3.85431C9.0659 3.85431 9.5444 4.04986 9.93551 4.44098C10.3266 4.83198 10.5222 5.31175 10.5222 5.88031C10.5222 6.43986 10.3266 6.91614 9.93551 7.30914C9.5444 7.70203 9.06457 7.89848 8.49601 7.89848Z" fill="#D9DDFF"/>
</g>
</svg>
