<svg width="16" height="16" viewBox="0 0 16 16" fill="none" xmlns="http://www.w3.org/2000/svg">
<mask id="mask0_13701_1626" style="mask-type:alpha" maskUnits="userSpaceOnUse" x="0" y="0" width="16" height="16">
<rect width="16" height="16" fill="#D9D9D9"/>
</mask>
<g mask="url(#mask0_13701_1626)">
<path d="M8.00834 11.3098C8.19745 11.3098 8.35889 11.243 8.49267 11.1093C8.62634 10.9756 8.69317 10.8141 8.69317 10.625V8.03484C8.69317 7.84561 8.62634 7.68417 8.49267 7.5505C8.35889 7.41684 8.19745 7.35 8.00834 7.35C7.81922 7.35 7.65778 7.41684 7.524 7.5505C7.39034 7.68417 7.3235 7.84561 7.3235 8.03484V10.625C7.3235 10.8141 7.39034 10.9756 7.524 11.1093C7.65778 11.243 7.81922 11.3098 8.00834 11.3098ZM7.99817 6.14634C8.19972 6.14634 8.36928 6.07817 8.50684 5.94184C8.64428 5.8055 8.713 5.63661 8.713 5.43517C8.713 5.23361 8.64484 5.06406 8.5085 4.9265C8.37217 4.78906 8.20328 4.72034 8.00184 4.72034C7.80028 4.72034 7.63072 4.7885 7.49317 4.92484C7.35572 5.06117 7.287 5.23006 7.287 5.4315C7.287 5.63306 7.35517 5.80261 7.4915 5.94017C7.62784 6.07761 7.79672 6.14634 7.99817 6.14634ZM8 14.6355C7.07978 14.6355 6.21639 14.4612 5.40984 14.1125C4.60328 13.7638 3.90167 13.2906 3.305 12.6928C2.70845 12.0952 2.23589 11.3934 1.88734 10.5877C1.53878 9.78189 1.3645 8.91934 1.3645 8C1.3645 7.07978 1.53884 6.21639 1.8875 5.40984C2.23617 4.60328 2.70939 3.90167 3.30717 3.305C3.90484 2.70845 4.60656 2.23589 5.41234 1.88734C6.21811 1.53878 7.08067 1.3645 8 1.3645C8.92022 1.3645 9.78361 1.53884 10.5902 1.8875C11.3967 2.23617 12.0983 2.70939 12.695 3.30717C13.2916 3.90484 13.7641 4.60656 14.1127 5.41234C14.4612 6.21811 14.6355 7.08067 14.6355 8C14.6355 8.92022 14.4612 9.78361 14.1125 10.5902C13.7638 11.3967 13.2906 12.0983 12.6928 12.695C12.0952 13.2916 11.3934 13.7641 10.5877 14.1127C9.78189 14.4612 8.91934 14.6355 8 14.6355ZM8 13.2022C9.45045 13.2022 10.6801 12.6978 11.689 11.689C12.6978 10.6801 13.2022 9.45045 13.2022 8C13.2022 6.54956 12.6978 5.31989 11.689 4.311C10.6801 3.30222 9.45045 2.79784 8 2.79784C6.54956 2.79784 5.31989 3.30222 4.311 4.311C3.30222 5.31989 2.79784 6.54956 2.79784 8C2.79784 9.45045 3.30222 10.6801 4.311 11.689C5.31989 12.6978 6.54956 13.2022 8 13.2022Z" fill="#D9DDFF"/>
</g>
</svg>
