<svg width="16" height="16" viewBox="0 0 16 16" fill="none" xmlns="http://www.w3.org/2000/svg">
<mask id="mask0_13707_107606" style="mask-type:alpha" maskUnits="userSpaceOnUse" x="0" y="0" width="16" height="16">
<rect width="16" height="16" fill="#D9D9D9"/>
</mask>
<g mask="url(#mask0_13707_107606)">
<path d="M7.99999 10.3167C7.89999 10.3167 7.80138 10.2944 7.70416 10.25C7.60694 10.2056 7.52221 10.1444 7.44999 10.0667L4.19166 6.80833C4.0361 6.65833 3.9611 6.47778 3.96666 6.26667C3.97221 6.05556 4.05277 5.875 4.20832 5.725C4.36388 5.575 4.54582 5.5 4.75416 5.5C4.96249 5.5 5.14166 5.575 5.29166 5.725L7.99999 8.45L10.725 5.725C10.875 5.575 11.0514 5.50278 11.2542 5.50833C11.4569 5.51389 11.6361 5.59167 11.7917 5.74167C11.9472 5.89167 12.025 6.07222 12.025 6.28333C12.025 6.49444 11.95 6.675 11.8 6.825L8.55832 10.0667C8.48055 10.1444 8.39305 10.2056 8.29582 10.25C8.1986 10.2944 8.09999 10.3167 7.99999 10.3167Z" fill="#D9DDFF"/>
</g>
</svg>
