<svg width="16" height="16" viewBox="0 0 16 16" fill="none" xmlns="http://www.w3.org/2000/svg">
<mask id="mask0_13701_1419" style="mask-type:alpha" maskUnits="userSpaceOnUse" x="0" y="0" width="16" height="16">
<rect width="16" height="16" fill="#D9D9D9"/>
</mask>
<g mask="url(#mask0_13701_1419)">
<path d="M8.00001 14.03C7.80923 14.03 7.6454 13.9616 7.50851 13.8248C7.37173 13.6879 7.30334 13.5241 7.30334 13.3333V8.72131H7.26168C6.56101 8.71342 5.88784 8.57275 5.24217 8.29931C4.5964 8.02586 4.02351 7.63914 3.52351 7.13914C3.01584 6.6317 2.62801 6.04898 2.36001 5.39098C2.09201 4.73298 1.95801 4.04709 1.95801 3.33331V2.67864C1.95801 2.48253 2.0284 2.31403 2.16917 2.17314C2.31006 2.03236 2.47856 1.96198 2.67467 1.96198H3.32934C4.03967 1.96198 4.72195 2.09875 5.37617 2.37231C6.03029 2.64598 6.61106 3.03659 7.11851 3.54414C7.45517 3.88092 7.73884 4.25309 7.96951 4.66064C8.20018 5.06831 8.37651 5.5017 8.49851 5.96081C8.55418 5.88781 8.61284 5.81698 8.67451 5.74831C8.73629 5.67975 8.80106 5.6117 8.86884 5.54414C9.37618 5.03659 9.9589 4.64598 10.617 4.37231C11.275 4.09875 11.9609 3.96198 12.6747 3.96198H13.3293C13.5255 3.96198 13.694 4.03236 13.8348 4.17314C13.9756 4.31403 14.046 4.48253 14.046 4.67864V5.33014C14.046 6.04825 13.9092 6.73575 13.6357 7.39264C13.362 8.04953 12.9714 8.6317 12.4638 9.13914C11.9638 9.63914 11.3931 10.0231 10.7515 10.291C10.1101 10.5589 9.43901 10.6968 8.73834 10.7046H8.69668V13.3333C8.69668 13.5241 8.62829 13.6879 8.49151 13.8248C8.35462 13.9616 8.19079 14.03 8.00001 14.03ZM7.31551 7.30714C7.31551 6.7997 7.21334 6.30403 7.00901 5.82014C6.80467 5.33614 6.51351 4.90514 6.13551 4.52714C5.76551 4.15714 5.34162 3.87198 4.86384 3.67164C4.38617 3.47142 3.8834 3.36736 3.35551 3.35948C3.3634 3.89636 3.46473 4.4042 3.65951 4.88298C3.85417 5.36175 4.13651 5.78614 4.50651 6.15614C4.88773 6.53725 5.31834 6.82242 5.79834 7.01164C6.27845 7.20075 6.78417 7.29925 7.31551 7.30714ZM8.70067 9.31114C9.20734 9.31114 9.70284 9.21314 10.1872 9.01714C10.6716 8.82114 11.1028 8.53414 11.4808 8.15614C11.8508 7.78614 12.136 7.36175 12.3362 6.88298C12.5365 6.4042 12.6406 5.89636 12.6485 5.35948C12.1116 5.36736 11.6038 5.47142 11.125 5.67164C10.6462 5.87198 10.2218 6.15714 9.85184 6.52714C9.47618 6.9027 9.1924 7.32842 9.00051 7.80431C8.80862 8.2802 8.70867 8.78248 8.70067 9.31114Z" fill="#D9DDFF"/>
</g>
</svg>
