<svg width="17" height="16" viewBox="0 0 17 16" fill="none" xmlns="http://www.w3.org/2000/svg">
<g clip-path="url(#clip0_13708_235338)">
<path d="M8.16671 2C4.6689 2 1.83337 4.83553 1.83337 8.33333C1.83337 11.8311 4.6689 14.6667 8.16671 14.6667C11.3061 14.6667 13.9121 12.3824 14.4131 9.38525C14.4364 9.24561 14.5078 9.11755 14.6189 9.02976C14.9755 8.7479 15.484 9.00297 15.4152 9.45228C14.8765 12.9713 11.8364 15.6667 8.16671 15.6667C4.11662 15.6667 0.833374 12.3834 0.833374 8.33333C0.833374 4.28325 4.11662 1 8.16671 1C8.63618 1 9.09534 1.04412 9.54029 1.12843C9.89167 1.19501 10.0304 1.60541 9.81807 1.8932C9.69566 2.05912 9.48651 2.13427 9.28351 2.09815C8.92098 2.03365 8.54777 2 8.16671 2Z" fill="#D9DDFF"/>
<path fill-rule="evenodd" clip-rule="evenodd" d="M8.63117 6.21201L10.5168 8.09763C10.647 8.2278 10.647 8.43886 10.5168 8.56903L8.63117 10.4547C8.50099 10.5848 8.28994 10.5848 8.15976 10.4547L6.27414 8.56903C6.14397 8.43886 6.14397 8.2278 6.27414 8.09763L8.15976 6.21201C8.28994 6.08184 8.50099 6.08184 8.63117 6.21201ZM11.2239 7.39052C11.7446 7.91122 11.7446 8.75544 11.2239 9.27614L9.33828 11.1618C8.81758 11.6825 7.97336 11.6825 7.45266 11.1618L5.56704 9.27614C5.04634 8.75544 5.04634 7.91122 5.56704 7.39052L7.45266 5.5049C7.97336 4.98421 8.81758 4.9842 9.33827 5.5049L11.2239 7.39052Z" fill="#D9DDFF"/>
<path d="M15.9175 2.80893L13.5955 0.520312C13.3426 0.271061 12.9325 0.271061 12.6797 0.520312L10.3576 2.80893C9.94965 3.21101 10.2386 3.89849 10.8155 3.89849H12.2984V8.10876C12.2984 8.601 12.6975 9.00004 13.1897 9.00004C13.682 9.00004 14.081 8.601 14.081 8.10876V3.89849H15.4596C16.0365 3.89849 16.3255 3.21101 15.9175 2.80893Z" fill="#D9DDFF"/>
</g>
<defs>
<clipPath id="clip0_13708_235338">
<rect width="16" height="16" fill="white" transform="translate(0.5)"/>
</clipPath>
</defs>
</svg>
