<svg width="17" height="16" viewBox="0 0 17 16" fill="none" xmlns="http://www.w3.org/2000/svg">
<mask id="mask0_13701_1433" style="mask-type:alpha" maskUnits="userSpaceOnUse" x="0" y="0" width="17" height="16">
<rect x="0.5" width="16" height="16" fill="#D9D9D9"/>
</mask>
<g mask="url(#mask0_13701_1433)">
<path d="M5.21667 12.0068C4.10612 12.0068 3.16067 11.6168 2.38034 10.8367C1.60001 10.0566 1.20984 9.11133 1.20984 8.001C1.20984 6.89066 1.60001 5.94511 2.38034 5.16433C3.16067 4.38355 4.10612 3.99316 5.21667 3.99316C5.97267 3.99316 6.66073 4.18639 7.28084 4.57283C7.90106 4.95927 8.37534 5.44839 8.70367 6.04016H14.3568C14.7511 6.04016 15.0885 6.1805 15.3692 6.46116C15.6498 6.74183 15.7902 7.07927 15.7902 7.4735V8.5265C15.7902 8.89939 15.6671 9.21755 15.421 9.481C15.1749 9.74444 14.8813 9.89078 14.5402 9.92H14.4735V10.5337C14.4682 10.9226 14.3265 11.2547 14.0485 11.5302C13.7705 11.8055 13.4344 11.9432 13.0402 11.9432H11.9667C11.5725 11.9432 11.239 11.8068 10.9663 11.534C10.6936 11.2613 10.5519 10.9412 10.5413 10.5735V9.95983H8.70367C8.37534 10.5516 7.90106 11.0407 7.28084 11.4272C6.66073 11.8136 5.97267 12.0068 5.21667 12.0068ZM5.21667 10.6333C5.96301 10.6333 6.55462 10.4022 6.99151 9.94C7.42839 9.47789 7.68523 9.02794 7.76201 8.59016H11.9107V10.5735H13.1V8.59016H14.4167V7.40983H7.76201C7.68523 6.97205 7.42839 6.52211 6.99151 6.06C6.55462 5.59777 5.96301 5.36666 5.21667 5.36666C4.48889 5.36666 3.86806 5.62361 3.35417 6.1375C2.84028 6.65139 2.58334 7.27222 2.58334 8C2.58334 8.72778 2.84028 9.34861 3.35417 9.8625C3.86806 10.3764 4.48889 10.6333 5.21667 10.6333ZM5.21851 9.3265C5.58584 9.3265 5.89845 9.19627 6.15634 8.93583C6.41423 8.6755 6.54317 8.36294 6.54317 7.99816C6.54317 7.63083 6.41362 7.31822 6.15451 7.06033C5.89551 6.80244 5.58228 6.6735 5.21484 6.6735C4.85017 6.6735 4.53823 6.80305 4.27901 7.06216C4.01978 7.32116 3.89017 7.63439 3.89017 8.00183C3.89017 8.3665 4.02039 8.67844 4.28084 8.93766C4.54117 9.19689 4.85373 9.3265 5.21851 9.3265Z" fill="#D9DDFF"/>
</g>
</svg>
